<?xml version="1.0" encoding="UTF-8"?><svg id="Calque_2" xmlns="http://www.w3.org/2000/svg" viewBox="0 0 45.56 47.91"><defs><style>.cls-1{fill:#00d948;}.cls-2{fill:#ff0368;}.cls-3{fill:#fcd200;}.cls-4{fill:#4a65ff;}</style></defs><g id="Calque_1-2"><polygon points="6.21 39.26 17.38 28.22 22.48 33.39 26.93 33.39 29.84 30.48 29.84 20.86 9.18 20.86 9.18 6.21 39.31 6.21 39.31 30.47 28.21 41.7 8.65 41.7 6.21 39.26"/><polygon class="cls-2" points="0 33.05 11.17 22.01 16.27 27.18 20.72 27.18 23.63 24.27 23.63 20.86 29.84 20.86 29.84 30.48 26.93 33.39 22.48 33.39 17.38 28.22 6.21 39.26 0 33.05"/><polygon class="cls-4" points="9.18 20.86 2.97 14.65 2.97 0 9.18 6.21 9.18 20.86"/><polygon class="cls-3" points="14.86 47.91 34.42 47.91 45.53 36.68 45.56 24.22 28.21 41.7 8.65 41.7 14.86 47.91"/><polygon class="cls-1" points="2.97 0 39.31 0 45.53 6.21 45.53 36.69 39.32 30.48 39.32 6.23 9.18 6.21 2.97 0"/><polygon class="cls-3" points="6.21 39.26 31.93 39.26 28 43.19 10.55 43.6 6.21 39.26"/></g></svg>