<?xml version="1.0" encoding="UTF-8"?><svg id="Calque_2" xmlns="http://www.w3.org/2000/svg" viewBox="0 0 30.53 32.1"><defs><style>.cls-1{fill:#00d948;}.cls-2{fill:#fff;}.cls-3{fill:#ff0368;}.cls-4{fill:#fcd200;}.cls-5{fill:#4a65ff;}</style></defs><g id="Calque_1-2"><polygon class="cls-2" points="4.16 26.31 11.64 18.91 15.06 22.37 18.05 22.37 19.99 20.42 19.99 13.98 6.15 13.98 6.15 4.16 26.34 4.16 26.34 20.42 18.9 27.94 5.8 27.94 4.16 26.31"/><polygon class="cls-3" points="0 22.15 7.48 14.75 10.9 18.21 13.88 18.21 15.83 16.26 15.83 13.98 19.99 13.98 19.99 20.42 18.05 22.37 15.06 22.37 11.64 18.91 4.16 26.31 0 22.15"/><polygon class="cls-5" points="6.15 13.98 1.99 9.82 1.99 0 6.15 4.16 6.15 13.98"/><polygon class="cls-4" points="9.96 32.1 23.06 32.1 30.5 24.58 30.53 16.23 18.9 27.94 5.8 27.94 9.96 32.1"/><polygon class="cls-1" points="1.99 0 26.34 0 30.51 4.16 30.51 24.58 26.34 20.42 26.34 4.17 6.15 4.16 1.99 0"/><polygon class="cls-4" points="4.16 26.31 21.39 26.31 18.76 28.94 7.07 29.21 4.16 26.31"/></g></svg>