<?xml version="1.0" encoding="UTF-8"?><svg id="Calque_2" xmlns="http://www.w3.org/2000/svg" viewBox="0 0 20 20"><defs><style>.cls-1{fill:#fff;}</style></defs><g id="Calque_1-2"><path class="cls-1" d="m10,0C4.48,0,0,4.48,0,10s4.48,10,10,10,10-4.48,10-10S15.52,0,10,0Zm3.61,6.34c1.07,0,1.93.86,1.93,1.93s-.86,1.93-1.93,1.93-1.93-.86-1.93-1.93c-.01-1.07.86-1.93,1.93-1.93Zm-6-1.58c1.3,0,2.36,1.06,2.36,2.36s-1.06,2.36-2.36,2.36-2.36-1.06-2.36-2.36,1.05-2.36,2.36-2.36Zm0,9.13v3.75c-2.4-.75-4.3-2.6-5.14-4.96,1.05-1.12,3.67-1.69,5.14-1.69.53,0,1.2.08,1.9.22-1.64.87-1.9,2.02-1.9,2.68Zm2.39,4.11c-.27,0-.53-.01-.79-.04v-4.07c0-1.42,2.94-2.13,4.4-2.13,1.07,0,2.92.39,3.84,1.15-1.17,2.97-4.06,5.09-7.45,5.09Z"/></g></svg>